<mxfile host="app.diagrams.net" modified="2021-04-20T20:25:56.023Z" agent="5.0 (Macintosh; Intel Mac OS X 11_2_3) AppleWebKit/537.36 (KHTML, like Gecko) Chrome/89.0.4389.128 Safari/537.36" etag="REjzQgSp2n6FTX84F0Kb" version="14.4.3" type="github">
  <diagram id="ryVlB7PdQjzx0bgTUUh0" name="Page-1">
    <mxGraphModel dx="1298" dy="702" grid="1" gridSize="10" guides="1" tooltips="1" connect="1" arrows="1" fold="1" page="1" pageScale="1" pageWidth="1654" pageHeight="1169" math="0" shadow="0">
      <root>
        <mxCell id="0" />
        <mxCell id="1" parent="0" />
        <mxCell id="sZjGSIEbr4CvCZts8M8v-53" style="edgeStyle=none;rounded=0;orthogonalLoop=1;jettySize=auto;html=1;entryX=1;entryY=0.5;entryDx=0;entryDy=0;endArrow=none;endFill=0;" parent="1" source="sZjGSIEbr4CvCZts8M8v-1" target="sZjGSIEbr4CvCZts8M8v-14" edge="1">
          <mxGeometry relative="1" as="geometry" />
        </mxCell>
        <mxCell id="sZjGSIEbr4CvCZts8M8v-1" value="Attacker" style="shape=umlActor;verticalLabelPosition=bottom;verticalAlign=top;html=1;outlineConnect=0;fillColor=#000000;" parent="1" vertex="1">
          <mxGeometry x="1230" y="380" width="30" height="60" as="geometry" />
        </mxCell>
        <mxCell id="sZjGSIEbr4CvCZts8M8v-20" style="edgeStyle=none;rounded=0;orthogonalLoop=1;jettySize=auto;html=1;endArrow=none;endFill=0;" parent="1" source="sZjGSIEbr4CvCZts8M8v-7" target="sZjGSIEbr4CvCZts8M8v-12" edge="1">
          <mxGeometry relative="1" as="geometry" />
        </mxCell>
        <mxCell id="sZjGSIEbr4CvCZts8M8v-21" value="Registers" style="edgeLabel;html=1;align=center;verticalAlign=middle;resizable=0;points=[];" parent="sZjGSIEbr4CvCZts8M8v-20" vertex="1" connectable="0">
          <mxGeometry x="0.3823" y="-2" relative="1" as="geometry">
            <mxPoint x="4.630000000000003" y="-15.589999999999996" as="offset" />
          </mxGeometry>
        </mxCell>
        <mxCell id="sZjGSIEbr4CvCZts8M8v-22" style="edgeStyle=none;rounded=0;orthogonalLoop=1;jettySize=auto;html=1;entryX=0;entryY=0.5;entryDx=0;entryDy=0;endArrow=none;endFill=0;" parent="1" source="sZjGSIEbr4CvCZts8M8v-7" target="sZjGSIEbr4CvCZts8M8v-8" edge="1">
          <mxGeometry relative="1" as="geometry" />
        </mxCell>
        <mxCell id="sZjGSIEbr4CvCZts8M8v-25" value="Logs in" style="edgeLabel;html=1;align=center;verticalAlign=middle;resizable=0;points=[];" parent="sZjGSIEbr4CvCZts8M8v-22" vertex="1" connectable="0">
          <mxGeometry x="0.1262" y="2" relative="1" as="geometry">
            <mxPoint as="offset" />
          </mxGeometry>
        </mxCell>
        <mxCell id="sZjGSIEbr4CvCZts8M8v-7" value="SecFit User" style="shape=umlActor;verticalLabelPosition=bottom;verticalAlign=top;html=1;outlineConnect=0;fillColor=#FBFFF2;" parent="1" vertex="1">
          <mxGeometry x="310" y="489.99999999999994" width="30" height="60" as="geometry" />
        </mxCell>
        <mxCell id="sZjGSIEbr4CvCZts8M8v-43" style="edgeStyle=none;rounded=0;orthogonalLoop=1;jettySize=auto;html=1;entryX=0;entryY=0.5;entryDx=0;entryDy=0;dashed=1;exitX=0.5;exitY=0;exitDx=0;exitDy=0;" parent="1" source="sZjGSIEbr4CvCZts8M8v-8" target="sZjGSIEbr4CvCZts8M8v-42" edge="1">
          <mxGeometry relative="1" as="geometry" />
        </mxCell>
        <mxCell id="sZjGSIEbr4CvCZts8M8v-50" value="&amp;lt;&amp;lt;extend&amp;gt;&amp;gt;" style="edgeLabel;html=1;align=center;verticalAlign=middle;resizable=0;points=[];" parent="sZjGSIEbr4CvCZts8M8v-43" vertex="1" connectable="0">
          <mxGeometry x="-0.4505" y="2" relative="1" as="geometry">
            <mxPoint x="-8.9" y="6.52" as="offset" />
          </mxGeometry>
        </mxCell>
        <mxCell id="sZjGSIEbr4CvCZts8M8v-70" style="edgeStyle=none;rounded=0;orthogonalLoop=1;jettySize=auto;html=1;dashed=1;entryX=0;entryY=0;entryDx=0;entryDy=0;" parent="1" source="sZjGSIEbr4CvCZts8M8v-8" target="sZjGSIEbr4CvCZts8M8v-71" edge="1">
          <mxGeometry relative="1" as="geometry">
            <mxPoint x="625" y="480" as="targetPoint" />
          </mxGeometry>
        </mxCell>
        <mxCell id="sZjGSIEbr4CvCZts8M8v-73" value="&amp;lt;&amp;lt;extend&amp;gt;&amp;gt;" style="edgeLabel;html=1;align=center;verticalAlign=middle;resizable=0;points=[];" parent="sZjGSIEbr4CvCZts8M8v-70" vertex="1" connectable="0">
          <mxGeometry x="0.2839" y="2" relative="1" as="geometry">
            <mxPoint x="-7.43" y="-8.83" as="offset" />
          </mxGeometry>
        </mxCell>
        <mxCell id="sZjGSIEbr4CvCZts8M8v-8" value="Login" style="ellipse;whiteSpace=wrap;html=1;" parent="1" vertex="1">
          <mxGeometry x="455" y="383.33000000000004" width="100" height="66.67" as="geometry" />
        </mxCell>
        <mxCell id="dVIonwqCxStYmmZDMTs0-17" style="edgeStyle=none;rounded=0;orthogonalLoop=1;jettySize=auto;html=1;entryX=0.97;entryY=0.325;entryDx=0;entryDy=0;dashed=1;endArrow=classic;endFill=1;entryPerimeter=0;" parent="1" source="sZjGSIEbr4CvCZts8M8v-11" target="sZjGSIEbr4CvCZts8M8v-8" edge="1">
          <mxGeometry relative="1" as="geometry" />
        </mxCell>
        <mxCell id="dVIonwqCxStYmmZDMTs0-18" value="&amp;lt;&amp;lt;threaten&amp;gt;&amp;gt;" style="edgeLabel;html=1;align=center;verticalAlign=middle;resizable=0;points=[];" parent="dVIonwqCxStYmmZDMTs0-17" vertex="1" connectable="0">
          <mxGeometry x="-0.1622" y="2" relative="1" as="geometry">
            <mxPoint y="-1" as="offset" />
          </mxGeometry>
        </mxCell>
        <mxCell id="sZjGSIEbr4CvCZts8M8v-11" value="&lt;font color=&quot;#fbfff2&quot;&gt;Man-in-the-middle&lt;br&gt;attack&lt;br&gt;&lt;/font&gt;" style="ellipse;whiteSpace=wrap;html=1;fillColor=#000000;" parent="1" vertex="1">
          <mxGeometry x="810" y="376.66999999999996" width="120" height="80" as="geometry" />
        </mxCell>
        <mxCell id="sZjGSIEbr4CvCZts8M8v-12" value="Register User" style="ellipse;whiteSpace=wrap;html=1;" parent="1" vertex="1">
          <mxGeometry x="455" y="240" width="100" height="66.67" as="geometry" />
        </mxCell>
        <mxCell id="dVIonwqCxStYmmZDMTs0-7" style="edgeStyle=none;rounded=0;orthogonalLoop=1;jettySize=auto;html=1;entryX=1;entryY=0;entryDx=0;entryDy=0;endArrow=classic;endFill=1;dashed=1;" parent="1" source="sZjGSIEbr4CvCZts8M8v-13" target="sZjGSIEbr4CvCZts8M8v-11" edge="1">
          <mxGeometry relative="1" as="geometry" />
        </mxCell>
        <mxCell id="dVIonwqCxStYmmZDMTs0-8" value="&amp;lt;&amp;lt;mitigate&amp;gt;&amp;gt;" style="edgeLabel;html=1;align=center;verticalAlign=middle;resizable=0;points=[];" parent="dVIonwqCxStYmmZDMTs0-7" vertex="1" connectable="0">
          <mxGeometry x="-0.669" y="1" relative="1" as="geometry">
            <mxPoint as="offset" />
          </mxGeometry>
        </mxCell>
        <mxCell id="sZjGSIEbr4CvCZts8M8v-13" value="Use HTTPS" style="ellipse;whiteSpace=wrap;html=1;" parent="1" vertex="1">
          <mxGeometry x="1045" y="180" width="100" height="66.67" as="geometry" />
        </mxCell>
        <mxCell id="sZjGSIEbr4CvCZts8M8v-47" value="&amp;lt;&amp;lt;include&amp;gt;&amp;gt;" style="edgeStyle=none;rounded=0;orthogonalLoop=1;jettySize=auto;html=1;entryX=0.992;entryY=0.638;entryDx=0;entryDy=0;entryPerimeter=0;dashed=1;" parent="1" source="sZjGSIEbr4CvCZts8M8v-14" target="sZjGSIEbr4CvCZts8M8v-29" edge="1">
          <mxGeometry x="-0.4164" y="-3" relative="1" as="geometry">
            <mxPoint y="-1" as="offset" />
          </mxGeometry>
        </mxCell>
        <mxCell id="sZjGSIEbr4CvCZts8M8v-48" value="&amp;lt;&amp;lt;include&amp;gt;&amp;gt;" style="edgeStyle=none;rounded=0;orthogonalLoop=1;jettySize=auto;html=1;entryX=0.992;entryY=0.413;entryDx=0;entryDy=0;entryPerimeter=0;dashed=1;" parent="1" source="sZjGSIEbr4CvCZts8M8v-14" target="sZjGSIEbr4CvCZts8M8v-11" edge="1">
          <mxGeometry relative="1" as="geometry" />
        </mxCell>
        <mxCell id="sZjGSIEbr4CvCZts8M8v-51" style="edgeStyle=none;rounded=0;orthogonalLoop=1;jettySize=auto;html=1;entryX=1;entryY=0;entryDx=0;entryDy=0;dashed=1;" parent="1" source="sZjGSIEbr4CvCZts8M8v-14" target="sZjGSIEbr4CvCZts8M8v-46" edge="1">
          <mxGeometry relative="1" as="geometry" />
        </mxCell>
        <mxCell id="sZjGSIEbr4CvCZts8M8v-52" value="&amp;lt;&amp;lt;include&amp;gt;&amp;gt;" style="edgeLabel;html=1;align=center;verticalAlign=middle;resizable=0;points=[];" parent="sZjGSIEbr4CvCZts8M8v-51" vertex="1" connectable="0">
          <mxGeometry x="0.3367" y="-1" relative="1" as="geometry">
            <mxPoint as="offset" />
          </mxGeometry>
        </mxCell>
        <mxCell id="sZjGSIEbr4CvCZts8M8v-95" style="edgeStyle=none;rounded=0;orthogonalLoop=1;jettySize=auto;html=1;dashed=1;entryX=1;entryY=1;entryDx=0;entryDy=0;" parent="1" source="sZjGSIEbr4CvCZts8M8v-14" target="sZjGSIEbr4CvCZts8M8v-86" edge="1">
          <mxGeometry relative="1" as="geometry">
            <mxPoint x="1085" y="320" as="targetPoint" />
          </mxGeometry>
        </mxCell>
        <mxCell id="sZjGSIEbr4CvCZts8M8v-96" value="&amp;lt;&amp;lt;include&amp;gt;&amp;gt;" style="edgeLabel;html=1;align=center;verticalAlign=middle;resizable=0;points=[];" parent="sZjGSIEbr4CvCZts8M8v-95" vertex="1" connectable="0">
          <mxGeometry x="-0.04" y="4" relative="1" as="geometry">
            <mxPoint x="-12.91" y="-32.57" as="offset" />
          </mxGeometry>
        </mxCell>
        <mxCell id="sZjGSIEbr4CvCZts8M8v-14" value="&lt;font color=&quot;#fbfff2&quot;&gt;Account Theft&lt;br&gt;&lt;/font&gt;" style="ellipse;whiteSpace=wrap;html=1;fillColor=#000000;" parent="1" vertex="1">
          <mxGeometry x="1025" y="370" width="120" height="80" as="geometry" />
        </mxCell>
        <mxCell id="sZjGSIEbr4CvCZts8M8v-82" style="edgeStyle=none;rounded=0;orthogonalLoop=1;jettySize=auto;html=1;entryX=1;entryY=0.36;entryDx=0;entryDy=0;entryPerimeter=0;endArrow=none;endFill=0;" parent="1" source="sZjGSIEbr4CvCZts8M8v-19" target="sZjGSIEbr4CvCZts8M8v-28" edge="1">
          <mxGeometry relative="1" as="geometry" />
        </mxCell>
        <mxCell id="sZjGSIEbr4CvCZts8M8v-88" style="edgeStyle=none;rounded=0;orthogonalLoop=1;jettySize=auto;html=1;entryX=1;entryY=0.5;entryDx=0;entryDy=0;endArrow=none;endFill=0;" parent="1" source="sZjGSIEbr4CvCZts8M8v-19" target="sZjGSIEbr4CvCZts8M8v-84" edge="1">
          <mxGeometry relative="1" as="geometry" />
        </mxCell>
        <mxCell id="dVIonwqCxStYmmZDMTs0-6" style="rounded=0;orthogonalLoop=1;jettySize=auto;html=1;entryX=1;entryY=0;entryDx=0;entryDy=0;endArrow=none;endFill=0;" parent="1" source="sZjGSIEbr4CvCZts8M8v-19" target="sZjGSIEbr4CvCZts8M8v-13" edge="1">
          <mxGeometry relative="1" as="geometry" />
        </mxCell>
        <mxCell id="sZjGSIEbr4CvCZts8M8v-19" value="SecFit Engineer" style="shape=umlActor;verticalLabelPosition=bottom;verticalAlign=top;html=1;outlineConnect=0;fillColor=#FBFFF2;" parent="1" vertex="1">
          <mxGeometry x="1180" y="50" width="30" height="60" as="geometry" />
        </mxCell>
        <mxCell id="sZjGSIEbr4CvCZts8M8v-34" style="edgeStyle=none;rounded=0;orthogonalLoop=1;jettySize=auto;html=1;entryX=1;entryY=0;entryDx=0;entryDy=0;dashed=1;" parent="1" source="sZjGSIEbr4CvCZts8M8v-28" target="sZjGSIEbr4CvCZts8M8v-29" edge="1">
          <mxGeometry relative="1" as="geometry" />
        </mxCell>
        <mxCell id="sZjGSIEbr4CvCZts8M8v-35" value="&amp;lt;&amp;lt;mitigate&amp;gt;&amp;gt;" style="edgeLabel;html=1;align=center;verticalAlign=middle;resizable=0;points=[];" parent="sZjGSIEbr4CvCZts8M8v-34" vertex="1" connectable="0">
          <mxGeometry x="-0.3847" y="-1" relative="1" as="geometry">
            <mxPoint x="11.26" y="-8.32" as="offset" />
          </mxGeometry>
        </mxCell>
        <mxCell id="sZjGSIEbr4CvCZts8M8v-28" value="Enforce strong&lt;br&gt;password policy" style="ellipse;whiteSpace=wrap;html=1;" parent="1" vertex="1">
          <mxGeometry x="990" y="100" width="100" height="66.67" as="geometry" />
        </mxCell>
        <mxCell id="sZjGSIEbr4CvCZts8M8v-62" style="edgeStyle=none;rounded=0;orthogonalLoop=1;jettySize=auto;html=1;entryX=1;entryY=0.5;entryDx=0;entryDy=0;dashed=1;" parent="1" source="sZjGSIEbr4CvCZts8M8v-29" target="sZjGSIEbr4CvCZts8M8v-42" edge="1">
          <mxGeometry relative="1" as="geometry" />
        </mxCell>
        <mxCell id="sZjGSIEbr4CvCZts8M8v-63" value="&amp;lt;&amp;lt;exploit&amp;gt;&amp;gt;" style="edgeLabel;html=1;align=center;verticalAlign=middle;resizable=0;points=[];" parent="sZjGSIEbr4CvCZts8M8v-62" vertex="1" connectable="0">
          <mxGeometry x="0.275" y="-1" relative="1" as="geometry">
            <mxPoint x="13.870000000000001" y="-7.470000000000001" as="offset" />
          </mxGeometry>
        </mxCell>
        <mxCell id="dVIonwqCxStYmmZDMTs0-19" style="edgeStyle=none;rounded=0;orthogonalLoop=1;jettySize=auto;html=1;dashed=1;endArrow=classic;endFill=1;entryX=1;entryY=0;entryDx=0;entryDy=0;" parent="1" source="sZjGSIEbr4CvCZts8M8v-29" target="sZjGSIEbr4CvCZts8M8v-8" edge="1">
          <mxGeometry relative="1" as="geometry" />
        </mxCell>
        <mxCell id="dVIonwqCxStYmmZDMTs0-20" value="&amp;lt;&amp;lt;threaten&amp;gt;&amp;gt;" style="edgeLabel;html=1;align=center;verticalAlign=middle;resizable=0;points=[];" parent="dVIonwqCxStYmmZDMTs0-19" vertex="1" connectable="0">
          <mxGeometry x="0.1243" relative="1" as="geometry">
            <mxPoint x="-6.63" y="3.5" as="offset" />
          </mxGeometry>
        </mxCell>
        <mxCell id="sZjGSIEbr4CvCZts8M8v-29" value="&lt;font color=&quot;#fbfff2&quot;&gt;Guess account&amp;nbsp;&lt;br&gt;credentials&lt;br&gt;&lt;/font&gt;" style="ellipse;whiteSpace=wrap;html=1;fillColor=#000000;" parent="1" vertex="1">
          <mxGeometry x="810" y="263.33000000000004" width="120" height="80" as="geometry" />
        </mxCell>
        <mxCell id="sZjGSIEbr4CvCZts8M8v-42" value="No throttling on&lt;br&gt;login attempts" style="ellipse;whiteSpace=wrap;html=1;dashed=1;" parent="1" vertex="1">
          <mxGeometry x="630" y="259.99999999999994" width="100" height="66.67" as="geometry" />
        </mxCell>
        <mxCell id="sZjGSIEbr4CvCZts8M8v-72" value="&amp;lt;&amp;lt;exploit&amp;gt;&amp;gt;" style="edgeStyle=none;rounded=0;orthogonalLoop=1;jettySize=auto;html=1;entryX=0.979;entryY=0.62;entryDx=0;entryDy=0;entryPerimeter=0;dashed=1;" parent="1" source="sZjGSIEbr4CvCZts8M8v-46" target="sZjGSIEbr4CvCZts8M8v-71" edge="1">
          <mxGeometry x="0.0876" y="7" relative="1" as="geometry">
            <mxPoint as="offset" />
          </mxGeometry>
        </mxCell>
        <mxCell id="dVIonwqCxStYmmZDMTs0-15" style="edgeStyle=none;rounded=0;orthogonalLoop=1;jettySize=auto;html=1;entryX=1;entryY=0.5;entryDx=0;entryDy=0;dashed=1;endArrow=classic;endFill=1;" parent="1" source="sZjGSIEbr4CvCZts8M8v-46" target="sZjGSIEbr4CvCZts8M8v-8" edge="1">
          <mxGeometry relative="1" as="geometry" />
        </mxCell>
        <mxCell id="dVIonwqCxStYmmZDMTs0-16" value="&amp;lt;&amp;lt;threaten&amp;gt;&amp;gt;" style="edgeLabel;html=1;align=center;verticalAlign=middle;resizable=0;points=[];" parent="dVIonwqCxStYmmZDMTs0-15" vertex="1" connectable="0">
          <mxGeometry x="0.5838" y="2" relative="1" as="geometry">
            <mxPoint x="59.13" y="11.72" as="offset" />
          </mxGeometry>
        </mxCell>
        <mxCell id="sZjGSIEbr4CvCZts8M8v-46" value="&lt;font color=&quot;#fbfff2&quot;&gt;Session hijacking&lt;br&gt;&lt;/font&gt;" style="ellipse;whiteSpace=wrap;html=1;fillColor=#000000;" parent="1" vertex="1">
          <mxGeometry x="810" y="490" width="120" height="80" as="geometry" />
        </mxCell>
        <mxCell id="sZjGSIEbr4CvCZts8M8v-71" value="Missing Cookie Attributes:&lt;br&gt;SameSite, Secure, HttpOnly" style="ellipse;whiteSpace=wrap;html=1;dashed=1;" parent="1" vertex="1">
          <mxGeometry x="555" y="470" width="140" height="66.67" as="geometry" />
        </mxCell>
        <mxCell id="dVIonwqCxStYmmZDMTs0-10" style="edgeStyle=none;rounded=0;orthogonalLoop=1;jettySize=auto;html=1;entryX=0.683;entryY=0.038;entryDx=0;entryDy=0;entryPerimeter=0;endArrow=classic;endFill=1;dashed=1;" parent="1" source="sZjGSIEbr4CvCZts8M8v-84" target="sZjGSIEbr4CvCZts8M8v-86" edge="1">
          <mxGeometry relative="1" as="geometry" />
        </mxCell>
        <mxCell id="dVIonwqCxStYmmZDMTs0-22" value="&amp;lt;&amp;lt;mitigate&amp;gt;&amp;gt;" style="edgeLabel;html=1;align=center;verticalAlign=middle;resizable=0;points=[];" parent="dVIonwqCxStYmmZDMTs0-10" vertex="1" connectable="0">
          <mxGeometry x="-0.2328" y="1" relative="1" as="geometry">
            <mxPoint x="-1" as="offset" />
          </mxGeometry>
        </mxCell>
        <mxCell id="sZjGSIEbr4CvCZts8M8v-84" value="E-mail &lt;br&gt;Verification" style="ellipse;whiteSpace=wrap;html=1;" parent="1" vertex="1">
          <mxGeometry x="900" y="20" width="100" height="66.67" as="geometry" />
        </mxCell>
        <mxCell id="oDKWI_df3i786pfNXXXN-1" style="rounded=0;orthogonalLoop=1;jettySize=auto;html=1;dashed=1;" edge="1" parent="1" source="sZjGSIEbr4CvCZts8M8v-86" target="sZjGSIEbr4CvCZts8M8v-12">
          <mxGeometry relative="1" as="geometry" />
        </mxCell>
        <mxCell id="oDKWI_df3i786pfNXXXN-2" value="&amp;lt;&amp;lt;threaten&amp;gt;&amp;gt;" style="edgeLabel;html=1;align=center;verticalAlign=middle;resizable=0;points=[];" vertex="1" connectable="0" parent="oDKWI_df3i786pfNXXXN-1">
          <mxGeometry x="-0.0775" y="1" relative="1" as="geometry">
            <mxPoint x="-1" as="offset" />
          </mxGeometry>
        </mxCell>
        <mxCell id="sZjGSIEbr4CvCZts8M8v-86" value="&lt;font color=&quot;#fbfff2&quot;&gt;Identity Theft&lt;br&gt;&lt;/font&gt;" style="ellipse;whiteSpace=wrap;html=1;fillColor=#000000;" parent="1" vertex="1">
          <mxGeometry x="810" y="150.00000000000003" width="120" height="80" as="geometry" />
        </mxCell>
        <mxCell id="oDKWI_df3i786pfNXXXN-3" style="edgeStyle=none;rounded=0;orthogonalLoop=1;jettySize=auto;html=1;entryX=1;entryY=1;entryDx=0;entryDy=0;dashed=1;endArrow=classic;endFill=1;exitX=0;exitY=0;exitDx=0;exitDy=0;" edge="1" parent="1" source="sZjGSIEbr4CvCZts8M8v-11" target="sZjGSIEbr4CvCZts8M8v-12">
          <mxGeometry relative="1" as="geometry">
            <mxPoint x="820.3271928861554" y="422.4983447914335" as="sourcePoint" />
            <mxPoint x="550.5334348035342" y="403.2129330296673" as="targetPoint" />
          </mxGeometry>
        </mxCell>
        <mxCell id="oDKWI_df3i786pfNXXXN-4" value="&amp;lt;&amp;lt;threaten&amp;gt;&amp;gt;" style="edgeLabel;html=1;align=center;verticalAlign=middle;resizable=0;points=[];" vertex="1" connectable="0" parent="oDKWI_df3i786pfNXXXN-3">
          <mxGeometry x="-0.1622" y="2" relative="1" as="geometry">
            <mxPoint x="63.07" y="18.01" as="offset" />
          </mxGeometry>
        </mxCell>
      </root>
    </mxGraphModel>
  </diagram>
</mxfile>
